#define 48173e9cd3ff4e7c93f44365601a102a8B7V2r6r6OZLX4cy_width 64
#define 48173e9cd3ff4e7c93f44365601a102a8B7V2r6r6OZLX4cy_height 64
static char 48173e9cd3ff4e7c93f44365601a102a8B7V2r6r6OZLX4cy_bits[] = {
  0x00, 0x00, 0x00, 0x00, 0x00, 0x00, 0x00, 0x00, 0x00, 0x00, 0x00, 0x00, 
  0x00, 0x00, 0x00, 0x00, 0x00, 0x00, 0x00, 0x00, 0x00, 0x00, 0x00, 0x00, 
  0x00, 0x00, 0x00, 0x00, 0x00, 0x00, 0x00, 0x00, 0x00, 0x00, 0x00, 0x00, 
  0x00, 0x00, 0x00, 0x00, 0x00, 0x00, 0x00, 0x00, 0x00, 0x00, 0x00, 0x00, 
  0x01, 0x00, 0x00, 0x00, 0x00, 0x00, 0x00, 0x00, 0x01, 0x00, 0x00, 0x00, 
  0x00, 0x00, 0x00, 0x00, 0x00, 0x00, 0x00, 0x00, 0x00, 0x00, 0x00, 0x00, 
  0x00, 0x00, 0x00, 0x00, 0x00, 0x00, 0x00, 0x00, 0x00, 0x00, 0x00, 0x00, 
  0x00, 0x00, 0x00, 0x00, 0x02, 0x00, 0x00, 0x00, 0x00, 0x00, 0x00, 0x00, 
  0x02, 0x00, 0x00, 0x00, 0x00, 0x00, 0x00, 0x00, 0x02, 0x00, 0x00, 0x00, 
  0x00, 0x00, 0x00, 0x00, 0x02, 0x00, 0x00, 0x00, 0x00, 0x00, 0x00, 0x00, 
  0x02, 0x00, 0x00, 0x00, 0x00, 0x00, 0x00, 0x00, 0x02, 0x00, 0x00, 0x00, 
  0x00, 0x00, 0x00, 0x00, 0x02, 0x00, 0x00, 0x00, 0x00, 0x00, 0x00, 0x00, 
  0x06, 0x00, 0x00, 0x00, 0x00, 0x00, 0x00, 0x00, 0x06, 0x00, 0x00, 0x00, 
  0x00, 0x00, 0x00, 0x00, 0x06, 0x00, 0x00, 0x00, 0x00, 0x00, 0x00, 0x00, 
  0x06, 0x00, 0x00, 0x00, 0x00, 0x00, 0x00, 0x00, 0x06, 0x00, 0x00, 0x00, 
  0x00, 0x00, 0x00, 0x00, 0x04, 0x00, 0x00, 0x00, 0x00, 0x00, 0x00, 0x00, 
  0x04, 0x00, 0x00, 0x00, 0x00, 0x00, 0x00, 0x00, 0x04, 0x00, 0x00, 0x00, 
  0x00, 0x00, 0x00, 0x00, 0x0C, 0x00, 0x00, 0x00, 0x00, 0x00, 0x00, 0x00, 
  0x0C, 0x00, 0x00, 0x00, 0x00, 0x00, 0x00, 0x00, 0x0C, 0x00, 0x00, 0x00, 
  0x00, 0x00, 0x00, 0x00, 0x0C, 0x00, 0x00, 0x00, 0x00, 0x00, 0x00, 0x00, 
  0x0C, 0x00, 0x00, 0x00, 0x00, 0x00, 0x00, 0x00, 0x0C, 0x00, 0x00, 0x00, 
  0x00, 0x00, 0x00, 0x00, 0x0C, 0x00, 0x00, 0x00, 0x00, 0x00, 0x00, 0x00, 
  0x1C, 0x00, 0x00, 0x00, 0x00, 0x00, 0x00, 0x00, 0x1C, 0x00, 0x00, 0x00, 
  0x00, 0x00, 0x00, 0x00, 0x1C, 0x00, 0x00, 0x00, 0x00, 0x00, 0x00, 0x00, 
  0x1C, 0x00, 0x00, 0x00, 0x00, 0x00, 0x00, 0x00, 0x1C, 0x00, 0x00, 0x00, 
  0x80, 0x01, 0x00, 0x00, 0x1C, 0x00, 0x00, 0x00, 0xC0, 0x03, 0x00, 0x00, 
  0x18, 0x00, 0x00, 0x00, 0xF0, 0x03, 0x00, 0x00, 0x18, 0x00, 0x00, 0x00, 
  0xFC, 0x01, 0x00, 0x00, 0x38, 0x00, 0x00, 0x00, 0x7E, 0x00, 0x00, 0x00, 
  0x38, 0x00, 0x00, 0x80, 0x1F, 0x00, 0x00, 0x00, 0x38, 0x00, 0x00, 0xC0, 
  0x07, 0x00, 0x00, 0x00, 0x38, 0x00, 0x00, 0xF0, 0x01, 0x00, 0x00, 0x00, 
  0x38, 0x00, 0x00, 0x7C, 0x00, 0x00, 0x00, 0x00, 0x38, 0x00, 0x00, 0x1E, 
  0x00, 0x00, 0x00, 0x00, 0x38, 0x00, 0x80, 0x07, 0x00, 0x00, 0x00, 0x00, 
  0x78, 0x00, 0xE0, 0x03, 0x00, 0x00, 0x00, 0x00, 0x78, 0x00, 0xF0, 0x00, 
  0x00, 0x00, 0x00, 0x00, 0x78, 0x00, 0x3C, 0x00, 0x00, 0x00, 0x00, 0x00, 
  0x78, 0x00, 0x0E, 0x00, 0x00, 0x00, 0x00, 0x00, 0x78, 0x80, 0x03, 0x00, 
  0x00, 0x00, 0x00, 0x00, 0x78, 0xE0, 0x00, 0x00, 0x00, 0x00, 0x00, 0x00, 
  0x70, 0x30, 0x00, 0x00, 0x00, 0x00, 0x00, 0x00, 0xF0, 0x0C, 0x00, 0x00, 
  0x00, 0x00, 0x00, 0x00, 0xF0, 0x02, 0x00, 0x00, 0x00, 0x00, 0x00, 0x00, 
  0xF0, 0x01, 0x00, 0x00, 0x00, 0x00, 0x00, 0x00, 0x70, 0x00, 0x00, 0x00, 
  0x00, 0x00, 0x00, 0x00, 0x10, 0x00, 0x00, 0x00, 0x00, 0x00, 0x00, 0x00, 
  0x00, 0x00, 0x00, 0x00, 0x00, 0x00, 0x00, 0x00, 0x00, 0x00, 0x00, 0x00, 
  0x00, 0x00, 0x00, 0x00, 0x00, 0x00, 0x00, 0x00, 0x00, 0x00, 0x00, 0x00, 
  0x00, 0x00, 0x00, 0x00, 0x00, 0x00, 0x00, 0x00, };
